# xmcd CD database file
#
# Track frame offsets:
#	225
#	32609
#	49239
#	64623
#	88696
#	106288
#	134285
#	164300
#	181947
#	199866
#
# Disc length: 2866 seconds
#
# Revision: 0
# Processed by: cddbd v1.5.1PL2 Copyright (c) Steve Scherf et al.
# Submitted via: CDex 1.51
#
DISCID=830b2f0a
DTITLE=Jeva - Life - a time to love
DYEAR=1900
DGENRE=New Age
TTITLE0=Sound Of Eternal Thoughts (long version)
TTITLE1=Sunny Morning
TTITLE2=Take It Easy
TTITLE3=Light Of Memories
TTITLE4=It's Paradise
TTITLE5=There's Only You In My life
TTITLE6=I Wish You To Stay
TTITLE7=Snowbirds
TTITLE8=Sound Of Eternal Thoughts
TTITLE9=I Need A Day Light In My Life
EXTD=
EXTT0=
EXTT1=
EXTT2=
EXTT3=
EXTT4=
EXTT5=
EXTT6=
EXTT7=
EXTT8=
EXTT9=
PLAYORDER=
